<svg xmlns="http://www.w3.org/2000/svg" xmlns:xlink="http://www.w3.org/1999/xlink" width="500" zoomAndPan="magnify" viewBox="0 0 375 299.999988" height="400" preserveAspectRatio="xMidYMid meet" version="1.0"><defs><g/><clipPath id="86293bd081"><path d="M 181 35 L 298 35 L 298 100 L 181 100 Z M 181 35 " clip-rule="nonzero"/></clipPath><clipPath id="69bcfb4962"><path d="M 298.371094 37.222656 L 295.980469 103.152344 L 181.964844 99.019531 L 184.351562 33.089844 Z M 298.371094 37.222656 " clip-rule="nonzero"/></clipPath><clipPath id="1553d4c4da"><path d="M 298.371094 37.222656 L 295.980469 103.152344 L 181.964844 99.019531 L 184.351562 33.089844 Z M 298.371094 37.222656 " clip-rule="nonzero"/></clipPath><clipPath id="f0d39387d4"><path d="M 298.367188 37.222656 L 295.976562 103.246094 L 181.644531 99.101562 L 184.039062 33.078125 Z M 298.367188 37.222656 " clip-rule="nonzero"/></clipPath><clipPath id="b4e10d5f49"><path d="M 176.5625 97.730469 L 181.992188 97.730469 L 181.992188 103.164062 L 176.5625 103.164062 Z M 176.5625 97.730469 " clip-rule="nonzero"/></clipPath></defs><g fill="#ffffff" fill-opacity="1"><g transform="translate(7.754119, 232.708573)"><g><path d="M 86.28125 5.9375 C 74.875 5.9375 64.679688 3.804688 55.703125 -0.453125 C 46.722656 -4.710938 39.128906 -10.472656 32.921875 -17.734375 C 26.722656 -25.003906 21.96875 -33.414062 18.65625 -42.96875 C 15.351562 -52.519531 13.703125 -62.625 13.703125 -73.28125 C 13.703125 -85.21875 15.394531 -96.226562 18.78125 -106.3125 C 22.164062 -116.394531 26.898438 -125.335938 32.984375 -133.140625 C 39.066406 -140.941406 46.3125 -147.523438 54.71875 -152.890625 C 63.132812 -158.253906 72.363281 -162.226562 82.40625 -164.8125 C 83.320312 -164.8125 83.988281 -165.398438 84.40625 -166.578125 C 84.820312 -167.753906 85.203125 -169.125 85.546875 -170.6875 C 85.890625 -172.25 86.226562 -173.75 86.5625 -175.1875 C 86.90625 -176.632812 87.460938 -177.664062 88.234375 -178.28125 C 115.015625 -174.625 132.929688 -170.476562 141.984375 -165.84375 C 146.773438 -163.40625 150.941406 -161.003906 154.484375 -158.640625 C 158.023438 -156.285156 161.203125 -153.703125 164.015625 -150.890625 C 166.828125 -148.078125 169.375 -144.84375 171.65625 -141.1875 C 173.9375 -137.53125 176.222656 -133.15625 178.515625 -128.0625 C 180.867188 -122.738281 182.617188 -116.117188 183.765625 -108.203125 L 183.875 -106.828125 C 184.25 -103.941406 184.550781 -100.859375 184.78125 -97.578125 C 185.007812 -94.304688 185.125 -90.847656 185.125 -87.203125 C 185.125 -74.035156 182.972656 -62.144531 178.671875 -51.53125 C 174.378906 -40.914062 168.425781 -31.578125 160.8125 -23.515625 C 162.875 -21.304688 164.78125 -19.210938 166.53125 -17.234375 C 168.28125 -15.253906 169.800781 -13.460938 171.09375 -11.859375 C 172.382812 -10.265625 173.410156 -8.878906 174.171875 -7.703125 C 174.929688 -6.523438 175.3125 -5.671875 175.3125 -5.140625 C 175.3125 -4.296875 174.644531 -3.285156 173.3125 -2.109375 C 171.976562 -0.929688 170.300781 0.335938 168.28125 1.703125 C 166.269531 3.078125 164.082031 4.445312 161.71875 5.8125 C 159.363281 7.1875 157.160156 8.40625 155.109375 9.46875 C 153.054688 10.539062 151.304688 11.414062 149.859375 12.09375 C 148.410156 12.78125 147.613281 13.125 147.46875 13.125 C 146.851562 13.125 146.296875 12.953125 145.796875 12.609375 C 145.304688 12.265625 144.875 11.90625 144.5 11.53125 L 130.453125 -2.515625 C 123.984375 0.148438 117.363281 2.222656 110.59375 3.703125 C 103.820312 5.191406 96.632812 5.9375 89.03125 5.9375 Z M 64.59375 -77.84375 C 64.59375 -72.59375 65.085938 -67.359375 66.078125 -62.140625 C 67.066406 -56.929688 68.742188 -52.046875 71.109375 -47.484375 C 71.179688 -47.398438 71.21875 -47.320312 71.21875 -47.25 C 73.957031 -42.613281 77.585938 -38.847656 82.109375 -35.953125 C 86.640625 -33.054688 92.332031 -31.609375 99.1875 -31.609375 L 101.46875 -31.84375 L 100.09375 -33.4375 C 98.34375 -35.414062 96.894531 -37.164062 95.75 -38.6875 C 94.613281 -40.207031 94.046875 -41.347656 94.046875 -42.109375 C 94.046875 -43.554688 95.113281 -44.851562 97.25 -46 L 123.84375 -59.34375 C 124.289062 -59.570312 124.671875 -59.6875 124.984375 -59.6875 C 125.585938 -59.6875 126.304688 -59.15625 127.140625 -58.09375 C 127.984375 -57.03125 129.164062 -55.695312 130.6875 -54.09375 C 132.8125 -59.125 134.332031 -64.660156 135.25 -70.703125 C 136.164062 -76.753906 136.625 -82.519531 136.625 -88 C 136.625 -96.21875 135.15625 -103.539062 132.21875 -109.96875 C 129.289062 -116.394531 124.210938 -121.78125 116.984375 -126.125 C 114.554688 -127.5625 111.953125 -128.582031 109.171875 -129.1875 C 106.390625 -129.800781 103.328125 -130.109375 99.984375 -130.109375 C 96.640625 -130.109375 93.597656 -129.519531 90.859375 -128.34375 C 88.117188 -127.164062 85.625 -125.660156 83.375 -123.828125 C 81.132812 -122.003906 79.097656 -120.007812 77.265625 -117.84375 C 75.441406 -115.675781 73.84375 -113.640625 72.46875 -111.734375 C 71.03125 -109.753906 69.816406 -107.316406 68.828125 -104.421875 C 67.835938 -101.535156 67.019531 -98.53125 66.375 -95.40625 C 65.726562 -92.289062 65.269531 -89.171875 65 -86.046875 C 64.726562 -82.929688 64.59375 -80.195312 64.59375 -77.84375 Z M 64.59375 -77.84375 "/></g></g><g transform="translate(192.197583, 232.708573)"><g><path d="M 28.875 -1.484375 C 27.351562 -1.859375 26.328125 -2.445312 25.796875 -3.25 C 25.265625 -4.050781 25 -4.945312 25 -5.9375 C 25 -6.164062 25.015625 -6.316406 25.046875 -6.390625 C 25.085938 -6.460938 25.109375 -6.613281 25.109375 -6.84375 C 25.710938 -15.0625 26.375 -23.675781 27.09375 -32.6875 C 27.820312 -41.707031 28.601562 -50.878906 29.4375 -60.203125 C 30.28125 -69.523438 31.117188 -78.828125 31.953125 -88.109375 C 32.796875 -97.390625 33.632812 -106.40625 34.46875 -115.15625 L 34.359375 -115.15625 C 34.046875 -115.15625 33.1875 -114.90625 31.78125 -114.40625 C 30.375 -113.914062 28.773438 -113.382812 26.984375 -112.8125 C 25.203125 -112.25 23.394531 -111.738281 21.5625 -111.28125 C 19.738281 -110.820312 18.257812 -110.59375 17.125 -110.59375 C 16.132812 -110.59375 15.425781 -110.972656 15 -111.734375 C 14.582031 -112.492188 14.375 -113.332031 14.375 -114.25 C 14.375 -114.9375 14.488281 -115.582031 14.71875 -116.1875 C 16.78125 -122.125 18.910156 -127.675781 21.109375 -132.84375 C 23.316406 -138.019531 25.523438 -143.347656 27.734375 -148.828125 C 33.515625 -151.953125 39.523438 -154.671875 45.765625 -156.984375 C 52.003906 -159.304688 58.300781 -161.25 64.65625 -162.8125 C 71.007812 -164.375 77.34375 -165.550781 83.65625 -166.34375 C 89.976562 -167.144531 96.101562 -167.546875 102.03125 -167.546875 C 110.332031 -167.546875 118.148438 -166.671875 125.484375 -164.921875 C 132.828125 -163.171875 139.21875 -160.523438 144.65625 -156.984375 C 150.101562 -153.453125 154.40625 -149.003906 157.5625 -143.640625 C 160.71875 -138.273438 162.296875 -131.976562 162.296875 -124.75 C 162.296875 -121.632812 161.609375 -118.628906 160.234375 -115.734375 C 158.867188 -112.835938 157.101562 -110.078125 154.9375 -107.453125 C 152.769531 -104.828125 150.351562 -102.390625 147.6875 -100.140625 C 145.03125 -97.898438 142.40625 -95.867188 139.8125 -94.046875 C 143.46875 -91.378906 146.757812 -88.960938 149.6875 -86.796875 C 152.613281 -84.628906 155.101562 -82.363281 157.15625 -80 C 159.21875 -77.644531 160.78125 -75.003906 161.84375 -72.078125 C 162.90625 -69.148438 163.4375 -65.59375 163.4375 -61.40625 C 163.4375 -55.007812 162.3125 -48.898438 160.0625 -43.078125 C 157.820312 -37.265625 154.742188 -31.863281 150.828125 -26.875 C 146.910156 -21.894531 142.269531 -17.390625 136.90625 -13.359375 C 131.539062 -9.328125 125.71875 -5.882812 119.4375 -3.03125 C 113.164062 -0.175781 106.546875 2.03125 99.578125 3.59375 C 92.617188 5.15625 85.601562 5.9375 78.53125 5.9375 C 75.9375 5.9375 72.472656 5.671875 68.140625 5.140625 C 63.804688 4.609375 59.257812 3.976562 54.5 3.25 C 49.738281 2.53125 45.054688 1.734375 40.453125 0.859375 C 35.859375 -0.015625 32 -0.796875 28.875 -1.484375 Z M 81.5 -126.6875 C 80.050781 -117.707031 78.832031 -108.59375 77.84375 -99.34375 C 76.851562 -90.101562 75.992188 -81.125 75.265625 -72.40625 C 74.546875 -63.695312 73.921875 -55.425781 73.390625 -47.59375 C 72.859375 -39.757812 72.328125 -32.757812 71.796875 -26.59375 C 74.835938 -26.59375 78.125 -26.765625 81.65625 -27.109375 C 85.195312 -27.453125 88.71875 -28.039062 92.21875 -28.875 C 95.71875 -29.707031 99.125 -30.789062 102.4375 -32.125 C 105.75 -33.457031 108.660156 -35.113281 111.171875 -37.09375 C 113.679688 -39.070312 115.695312 -41.410156 117.21875 -44.109375 C 118.738281 -46.816406 119.5 -49.921875 119.5 -53.421875 C 119.5 -55.546875 118.851562 -57.425781 117.5625 -59.0625 C 116.269531 -60.695312 114.613281 -62.101562 112.59375 -63.28125 C 110.582031 -64.46875 108.359375 -65.457031 105.921875 -66.25 C 103.484375 -67.050781 101.101562 -67.695312 98.78125 -68.1875 C 96.457031 -68.6875 94.328125 -69.066406 92.390625 -69.328125 C 90.453125 -69.597656 88.988281 -69.8125 88 -69.96875 C 86.9375 -70.113281 86.25 -70.488281 85.9375 -71.09375 C 85.632812 -71.707031 85.484375 -72.472656 85.484375 -73.390625 C 85.484375 -74.378906 86.09375 -75.863281 87.3125 -77.84375 C 88.53125 -79.820312 90.203125 -82.519531 92.328125 -85.9375 L 97.125 -93.59375 C 99.1875 -94.351562 101.414062 -95.300781 103.8125 -96.4375 C 106.207031 -97.582031 108.429688 -98.894531 110.484375 -100.375 C 112.535156 -101.863281 114.242188 -103.539062 115.609375 -105.40625 C 116.984375 -107.269531 117.671875 -109.304688 117.671875 -111.515625 C 117.671875 -117.753906 116.320312 -122.523438 113.625 -125.828125 C 110.925781 -129.140625 107.023438 -130.796875 101.921875 -130.796875 C 96.140625 -130.796875 89.332031 -129.425781 81.5 -126.6875 Z M 81.5 -126.6875 "/></g></g></g><g clip-path="url(#86293bd081)"><g clip-path="url(#69bcfb4962)"><g clip-path="url(#1553d4c4da)"><g clip-path="url(#f0d39387d4)"><path fill="#ffffff" d="M 192.265625 64.207031 C 194.894531 65.121094 194.65625 71.664062 194.65625 71.664062 C 196.394531 57.597656 211.40625 50.160156 211.40625 50.160156 C 207.773438 54.492188 207.265625 59.339844 207.203125 61.042969 C 207.1875 61.449219 207.199219 61.675781 207.199219 61.675781 C 217.894531 37.800781 259.339844 38.078125 259.339844 38.078125 C 254.851562 40.386719 250.464844 45.738281 250.464844 45.738281 C 267.355469 36.421875 295.710938 48.050781 295.535156 52.871094 C 295.53125 52.96875 295.515625 53.0625 295.488281 53.15625 C 294.109375 57.753906 260.707031 62.507812 260.707031 62.507812 C 262.757812 62.496094 266.605469 63.625 266.605469 63.625 C 259.441406 63.570312 248.273438 66.644531 248.273438 66.644531 C 253.175781 67.027344 255.941406 69.789062 255.941406 69.789062 C 248.835938 68.097656 244.433594 68.359375 226.648438 75.894531 C 218.96875 79.144531 214.039062 79.121094 214.039062 79.121094 C 218.273438 80.914062 223.042969 79.246094 223.042969 79.246094 C 214.960938 86.914062 200.914062 84.960938 194.699219 83.601562 L 195.019531 83.207031 L 195.378906 82.804688 L 196.089844 82 L 196.808594 81.191406 L 197.558594 80.414062 C 199.898438 77.953125 202.460938 75.6875 205.171875 73.589844 C 205.488281 73.363281 205.804688 73.136719 206.121094 72.914062 C 207.429688 72.042969 208.710938 71.191406 209.972656 70.351562 C 211.265625 69.566406 212.53125 68.796875 213.773438 68.039062 C 215.039062 67.320312 216.292969 66.640625 217.511719 65.957031 C 222.441406 63.328125 227.140625 61.273438 231.480469 59.585938 C 240.203125 56.300781 247.492188 54.53125 253.007812 53.539062 C 253.210938 53.5 253.410156 53.460938 253.605469 53.421875 C 253.804688 53.390625 254.003906 53.359375 254.199219 53.328125 C 254.589844 53.269531 254.976562 53.207031 255.355469 53.148438 C 256.109375 53.027344 256.839844 52.914062 257.546875 52.800781 C 258.25 52.675781 258.933594 52.605469 259.59375 52.527344 C 260.253906 52.445312 260.894531 52.371094 261.507812 52.296875 C 261.816406 52.257812 262.117188 52.21875 262.414062 52.183594 C 262.714844 52.148438 263.003906 52.105469 263.292969 52.085938 C 263.871094 52.039062 264.425781 51.992188 264.964844 51.945312 C 265.5 51.898438 266.019531 51.851562 266.523438 51.808594 C 266.773438 51.785156 267.019531 51.765625 267.265625 51.742188 C 267.507812 51.722656 267.746094 51.695312 267.984375 51.6875 C 268.929688 51.636719 269.8125 51.589844 270.648438 51.542969 C 271.066406 51.519531 271.472656 51.496094 271.871094 51.476562 C 272.066406 51.460938 272.265625 51.453125 272.457031 51.4375 C 272.652344 51.429688 272.84375 51.429688 273.03125 51.425781 C 274.546875 51.394531 275.929688 51.355469 277.289062 51.316406 C 259.59375 50.230469 241.683594 53.242188 225.292969 59.980469 L 222.242188 61.296875 L 221.480469 61.628906 C 221.355469 61.683594 221.234375 61.742188 221.113281 61.800781 C 217.21875 63.363281 213.398438 65.132812 209.703125 67.179688 C 204.4375 70.097656 199.394531 73.53125 194.886719 77.667969 L 194.039062 78.4375 L 193.21875 79.242188 L 192.941406 79.511719 C 193.066406 78 193.183594 76.410156 193.234375 75.132812 C 193.453125 69.617188 192.265625 64.207031 192.265625 64.207031 Z M 187.640625 94.351562 L 187.652344 94.324219 C 188.9375 91.796875 190.40625 89.355469 192.058594 87.023438 L 193.175781 85.507812 C 193.339844 85.59375 193.515625 85.660156 193.703125 85.699219 C 197.09375 86.476562 202.296875 87.347656 207.835938 87.09375 C 214.960938 86.773438 220.601562 84.683594 224.605469 80.886719 C 225.046875 80.46875 227 78.488281 225.28125 78.875 C 226.003906 78.605469 226.753906 78.308594 227.53125 77.980469 C 245.046875 70.558594 248.890625 70.441406 255.417969 71.996094 C 256.402344 72.230469 259.347656 72.390625 259.84375 71.507812 C 260.148438 70.558594 258 68.644531 257.542969 68.1875 C 257.492188 68.136719 257.042969 67.695312 256.230469 67.128906 C 259.597656 66.46875 263.515625 65.867188 266.585938 65.890625 C 271.769531 65.808594 268.871094 63.566406 268.867188 63.5 C 271.617188 63.027344 274.824219 62.441406 278.039062 61.773438 C 283.074219 60.734375 287.15625 59.703125 290.179688 58.707031 C 294.914062 57.152344 297.082031 55.734375 297.65625 53.804688 C 297.742188 53.53125 297.789062 53.242188 297.796875 52.949219 C 297.871094 50.96875 296.320312 49.035156 293.058594 47.027344 C 288.179688 44.023438 280.621094 41.519531 273.34375 40.496094 C 269.535156 39.960938 264.75 39.671875 259.855469 40.378906 C 260.027344 40.277344 260.203125 40.179688 260.378906 40.089844 C 261.121094 39.710938 264.164062 38.566406 264.035156 37.378906 C 263.90625 36.191406 260.398438 35.816406 259.355469 35.808594 C 258.921875 35.808594 248.570312 35.773438 236.730469 38.726562 C 229.710938 40.472656 223.632812 42.917969 218.667969 45.988281 C 216.832031 47.125 215.144531 48.347656 213.613281 49.652344 C 213.914062 49.394531 214.054688 48.582031 214.023438 48.21875 C 213.957031 47.4375 213.164062 47.367188 212.53125 47.457031 C 210.785156 47.710938 209.273438 48.691406 207.808594 49.601562 C 206.601562 50.355469 205.449219 51.199219 204.339844 52.089844 C 203.589844 52.691406 202.863281 53.316406 202.15625 53.960938 C 199 56.839844 196.554688 60.007812 194.878906 63.351562 C 193.371094 60.773438 190.71875 59.964844 190.105469 60.507812 C 189.636719 60.925781 191.164062 69.902344 190.96875 75.050781 C 190.875 77.585938 190.648438 80.402344 190.476562 82.085938 C 190.328125 82.246094 190.179688 82.402344 190.035156 82.5625 L 188.542969 84.324219 C 186.59375 86.714844 184.816406 89.253906 183.230469 91.921875 C 183.203125 91.96875 183.179688 92.027344 183.148438 92.070312 C 181.859375 94.058594 180.953125 98.714844 182.660156 99.121094 C 184.011719 99.445312 186.730469 96.230469 187.640625 94.351562 " fill-opacity="1" fill-rule="nonzero"/></g></g></g></g><g clip-path="url(#b4e10d5f49)"><path fill="#282325" d="M 176.5625 100.429688 C 176.5625 99.683594 176.902344 99.011719 177.394531 98.523438 C 177.882812 98.03125 178.554688 97.730469 179.300781 97.730469 C 180.050781 97.730469 180.71875 98.035156 181.207031 98.523438 C 181.699219 99.015625 181.992188 99.683594 181.992188 100.429688 C 181.992188 101.179688 181.730469 101.878906 181.238281 102.371094 C 180.75 102.863281 180.046875 103.160156 179.300781 103.160156 C 178.550781 103.160156 177.910156 102.800781 177.421875 102.308594 C 176.929688 101.820312 176.5625 101.179688 176.5625 100.429688 Z M 176.5625 100.429688 " fill-opacity="1" fill-rule="nonzero"/></g></svg>