<svg xmlns="http://www.w3.org/2000/svg" xmlns:xlink="http://www.w3.org/1999/xlink" width="50" zoomAndPan="magnify" viewBox="0 0 37.5 37.499999" height="50" preserveAspectRatio="xMidYMid meet" version="1.0"><defs><g/></defs><g fill="#ffffff" fill-opacity="1"><g transform="translate(1.010344, 33.579935)"><g><path d="M 15.78125 1.078125 C 13.695312 1.078125 11.832031 0.691406 10.1875 -0.078125 C 8.539062 -0.859375 7.148438 -1.910156 6.015625 -3.234375 C 4.890625 -4.566406 4.019531 -6.109375 3.40625 -7.859375 C 2.800781 -9.609375 2.5 -11.457031 2.5 -13.40625 C 2.5 -15.582031 2.804688 -17.59375 3.421875 -19.4375 C 4.046875 -21.28125 4.914062 -22.914062 6.03125 -24.34375 C 7.144531 -25.769531 8.46875 -26.972656 10 -27.953125 C 11.539062 -28.941406 13.234375 -29.671875 15.078125 -30.140625 C 15.242188 -30.140625 15.363281 -30.25 15.4375 -30.46875 C 15.507812 -30.6875 15.578125 -30.9375 15.640625 -31.21875 C 15.703125 -31.5 15.765625 -31.769531 15.828125 -32.03125 C 15.890625 -32.300781 15.992188 -32.492188 16.140625 -32.609375 C 21.035156 -31.941406 24.3125 -31.179688 25.96875 -30.328125 C 26.84375 -29.878906 27.601562 -29.441406 28.25 -29.015625 C 28.894531 -28.585938 29.472656 -28.113281 29.984375 -27.59375 C 30.503906 -27.082031 30.972656 -26.488281 31.390625 -25.8125 C 31.804688 -25.144531 32.222656 -24.347656 32.640625 -23.421875 C 33.078125 -22.441406 33.398438 -21.226562 33.609375 -19.78125 L 33.625 -19.53125 C 33.695312 -19.007812 33.753906 -18.445312 33.796875 -17.84375 C 33.835938 -17.25 33.859375 -16.617188 33.859375 -15.953125 C 33.859375 -13.546875 33.460938 -11.367188 32.671875 -9.421875 C 31.890625 -7.484375 30.800781 -5.773438 29.40625 -4.296875 C 29.78125 -3.890625 30.128906 -3.503906 30.453125 -3.140625 C 30.773438 -2.785156 31.050781 -2.460938 31.28125 -2.171875 C 31.519531 -1.878906 31.707031 -1.625 31.84375 -1.40625 C 31.988281 -1.1875 32.0625 -1.03125 32.0625 -0.9375 C 32.0625 -0.78125 31.9375 -0.59375 31.6875 -0.375 C 31.445312 -0.164062 31.140625 0.0625 30.765625 0.3125 C 30.398438 0.5625 30.003906 0.8125 29.578125 1.0625 C 29.148438 1.3125 28.742188 1.535156 28.359375 1.734375 C 27.984375 1.929688 27.664062 2.09375 27.40625 2.21875 C 27.144531 2.34375 27 2.40625 26.96875 2.40625 C 26.851562 2.40625 26.75 2.375 26.65625 2.3125 C 26.570312 2.25 26.492188 2.179688 26.421875 2.109375 L 23.859375 -0.453125 C 22.671875 0.0234375 21.457031 0.398438 20.21875 0.671875 C 18.988281 0.941406 17.675781 1.078125 16.28125 1.078125 Z M 11.8125 -14.234375 C 11.8125 -13.273438 11.898438 -12.316406 12.078125 -11.359375 C 12.265625 -10.410156 12.570312 -9.519531 13 -8.6875 C 13.019531 -8.664062 13.03125 -8.648438 13.03125 -8.640625 C 13.53125 -7.796875 14.191406 -7.109375 15.015625 -6.578125 C 15.847656 -6.046875 16.890625 -5.78125 18.140625 -5.78125 L 18.5625 -5.828125 L 18.3125 -6.109375 C 17.988281 -6.472656 17.722656 -6.796875 17.515625 -7.078125 C 17.304688 -7.359375 17.203125 -7.566406 17.203125 -7.703125 C 17.203125 -7.960938 17.394531 -8.195312 17.78125 -8.40625 L 22.640625 -10.859375 C 22.734375 -10.898438 22.804688 -10.921875 22.859375 -10.921875 C 22.972656 -10.921875 23.101562 -10.820312 23.25 -10.625 C 23.40625 -10.425781 23.625 -10.179688 23.90625 -9.890625 C 24.289062 -10.804688 24.566406 -11.816406 24.734375 -12.921875 C 24.898438 -14.035156 24.984375 -15.09375 24.984375 -16.09375 C 24.984375 -17.59375 24.710938 -18.929688 24.171875 -20.109375 C 23.640625 -21.285156 22.710938 -22.269531 21.390625 -23.0625 C 20.953125 -23.332031 20.476562 -23.519531 19.96875 -23.625 C 19.457031 -23.738281 18.894531 -23.796875 18.28125 -23.796875 C 17.675781 -23.796875 17.117188 -23.6875 16.609375 -23.46875 C 16.109375 -23.257812 15.648438 -22.984375 15.234375 -22.640625 C 14.828125 -22.304688 14.457031 -21.941406 14.125 -21.546875 C 13.789062 -21.148438 13.5 -20.78125 13.25 -20.4375 C 12.988281 -20.070312 12.765625 -19.625 12.578125 -19.09375 C 12.398438 -18.570312 12.25 -18.023438 12.125 -17.453125 C 12.007812 -16.878906 11.925781 -16.304688 11.875 -15.734375 C 11.832031 -15.171875 11.8125 -14.671875 11.8125 -14.234375 Z M 11.8125 -14.234375 "/></g></g></g></svg>