<svg xmlns="http://www.w3.org/2000/svg" xmlns:xlink="http://www.w3.org/1999/xlink" width="500" zoomAndPan="magnify" viewBox="0 0 375 374.999991" height="500" preserveAspectRatio="xMidYMid meet" version="1.0"><defs><g/></defs><rect x="-37.5" width="450" fill="#ffffff" y="-37.499999" height="449.999989" fill-opacity="1"/><rect x="-37.5" width="450" fill="#78909c" y="-37.499999" height="449.999989" fill-opacity="1"/><path fill="#78909c" d="M 375 187.5 C 375 190.570312 374.925781 193.636719 374.773438 196.699219 C 374.625 199.765625 374.398438 202.824219 374.097656 205.878906 C 373.796875 208.933594 373.421875 211.976562 372.96875 215.011719 C 372.519531 218.046875 371.996094 221.070312 371.398438 224.078125 C 370.796875 227.089844 370.125 230.082031 369.378906 233.058594 C 368.636719 236.035156 367.816406 238.992188 366.925781 241.929688 C 366.035156 244.863281 365.074219 247.777344 364.039062 250.667969 C 363.003906 253.554688 361.902344 256.417969 360.726562 259.253906 C 359.554688 262.089844 358.308594 264.890625 356.996094 267.667969 C 355.6875 270.441406 354.308594 273.179688 352.859375 275.886719 C 351.414062 278.59375 349.902344 281.261719 348.324219 283.894531 C 346.746094 286.527344 345.105469 289.117188 343.402344 291.667969 C 341.695312 294.222656 339.929688 296.730469 338.101562 299.195312 C 336.273438 301.660156 334.386719 304.078125 332.4375 306.449219 C 330.492188 308.820312 328.488281 311.144531 326.429688 313.417969 C 324.367188 315.691406 322.253906 317.914062 320.082031 320.082031 C 317.914062 322.253906 315.691406 324.367188 313.417969 326.429688 C 311.144531 328.488281 308.820312 330.492188 306.449219 332.4375 C 304.078125 334.386719 301.660156 336.273438 299.195312 338.101562 C 296.730469 339.929688 294.222656 341.695312 291.667969 343.402344 C 289.117188 345.105469 286.527344 346.746094 283.894531 348.324219 C 281.261719 349.902344 278.59375 351.414062 275.886719 352.859375 C 273.179688 354.308594 270.441406 355.6875 267.667969 356.996094 C 264.890625 358.308594 262.089844 359.554688 259.253906 360.726562 C 256.417969 361.902344 253.554688 363.003906 250.667969 364.039062 C 247.777344 365.074219 244.863281 366.035156 241.929688 366.925781 C 238.992188 367.816406 236.035156 368.636719 233.058594 369.378906 C 230.082031 370.125 227.089844 370.796875 224.078125 371.398438 C 221.070312 371.996094 218.046875 372.519531 215.011719 372.96875 C 211.976562 373.421875 208.933594 373.796875 205.878906 374.097656 C 202.824219 374.398438 199.765625 374.625 196.699219 374.773438 C 193.636719 374.925781 190.570312 375 187.5 375 C 184.429688 375 181.363281 374.925781 178.300781 374.773438 C 175.234375 374.625 172.175781 374.398438 169.121094 374.097656 C 166.066406 373.796875 163.023438 373.421875 159.988281 372.96875 C 156.953125 372.519531 153.929688 371.996094 150.921875 371.398438 C 147.910156 370.796875 144.917969 370.125 141.941406 369.378906 C 138.964844 368.636719 136.007812 367.816406 133.070312 366.925781 C 130.136719 366.035156 127.222656 365.074219 124.332031 364.039062 C 121.445312 363.003906 118.582031 361.902344 115.746094 360.726562 C 112.910156 359.554688 110.105469 358.308594 107.332031 356.996094 C 104.558594 355.6875 101.820312 354.308594 99.113281 352.859375 C 96.40625 351.414062 93.738281 349.902344 91.105469 348.324219 C 88.472656 346.746094 85.882812 345.105469 83.332031 343.402344 C 80.777344 341.695312 78.269531 339.929688 75.804688 338.101562 C 73.339844 336.273438 70.921875 334.386719 68.550781 332.4375 C 66.179688 330.492188 63.855469 328.488281 61.582031 326.429688 C 59.308594 324.367188 57.085938 322.253906 54.917969 320.082031 C 52.746094 317.914062 50.632812 315.691406 48.570312 313.417969 C 46.511719 311.144531 44.507812 308.820312 42.558594 306.449219 C 40.613281 304.078125 38.726562 301.660156 36.898438 299.195312 C 35.070312 296.730469 33.304688 294.222656 31.597656 291.667969 C 29.894531 289.117188 28.253906 286.527344 26.675781 283.894531 C 25.097656 281.261719 23.585938 278.59375 22.140625 275.886719 C 20.691406 273.179688 19.3125 270.441406 18.003906 267.667969 C 16.691406 264.890625 15.445312 262.089844 14.273438 259.253906 C 13.097656 256.417969 11.996094 253.554688 10.960938 250.667969 C 9.925781 247.777344 8.964844 244.863281 8.074219 241.929688 C 7.183594 238.992188 6.363281 236.035156 5.617188 233.058594 C 4.875 230.082031 4.203125 227.089844 3.601562 224.078125 C 3.003906 221.070312 2.480469 218.046875 2.03125 215.011719 C 1.578125 211.976562 1.203125 208.933594 0.902344 205.878906 C 0.601562 202.824219 0.375 199.765625 0.226562 196.699219 C 0.0742188 193.636719 0 190.570312 0 187.5 C 0 184.429688 0.0742188 181.363281 0.226562 178.300781 C 0.375 175.234375 0.601562 172.175781 0.902344 169.121094 C 1.203125 166.066406 1.578125 163.023438 2.03125 159.988281 C 2.480469 156.953125 3.003906 153.929688 3.601562 150.921875 C 4.203125 147.910156 4.875 144.917969 5.617188 141.941406 C 6.363281 138.964844 7.183594 136.007812 8.074219 133.070312 C 8.964844 130.136719 9.925781 127.222656 10.960938 124.332031 C 11.996094 121.445312 13.097656 118.582031 14.273438 115.746094 C 15.445312 112.910156 16.691406 110.105469 18.003906 107.332031 C 19.3125 104.558594 20.691406 101.820312 22.140625 99.113281 C 23.585938 96.40625 25.097656 93.738281 26.675781 91.105469 C 28.253906 88.472656 29.894531 85.882812 31.597656 83.332031 C 33.304688 80.777344 35.070312 78.269531 36.898438 75.804688 C 38.726562 73.339844 40.613281 70.921875 42.558594 68.550781 C 44.507812 66.179688 46.511719 63.855469 48.570312 61.582031 C 50.632812 59.308594 52.746094 57.085938 54.917969 54.917969 C 57.085938 52.746094 59.308594 50.632812 61.582031 48.570312 C 63.855469 46.511719 66.179688 44.507812 68.550781 42.558594 C 70.921875 40.613281 73.339844 38.726562 75.804688 36.898438 C 78.269531 35.070312 80.777344 33.304688 83.332031 31.597656 C 85.882812 29.894531 88.472656 28.253906 91.105469 26.675781 C 93.738281 25.097656 96.40625 23.585938 99.113281 22.140625 C 101.820312 20.691406 104.558594 19.3125 107.332031 18.003906 C 110.105469 16.691406 112.910156 15.445312 115.746094 14.273438 C 118.582031 13.097656 121.445312 11.996094 124.332031 10.960938 C 127.222656 9.925781 130.136719 8.964844 133.070312 8.074219 C 136.007812 7.183594 138.964844 6.363281 141.941406 5.617188 C 144.917969 4.875 147.910156 4.203125 150.921875 3.601562 C 153.929688 3.003906 156.953125 2.480469 159.988281 2.03125 C 163.023438 1.578125 166.066406 1.203125 169.121094 0.902344 C 172.175781 0.601562 175.234375 0.375 178.300781 0.226562 C 181.363281 0.0742188 184.429688 0 187.5 0 C 190.570312 0 193.636719 0.0742188 196.699219 0.226562 C 199.765625 0.375 202.824219 0.601562 205.878906 0.902344 C 208.933594 1.203125 211.976562 1.578125 215.011719 2.03125 C 218.046875 2.480469 221.070312 3.003906 224.078125 3.601562 C 227.089844 4.203125 230.082031 4.875 233.058594 5.617188 C 236.035156 6.363281 238.992188 7.183594 241.929688 8.074219 C 244.863281 8.964844 247.777344 9.925781 250.667969 10.960938 C 253.554688 11.996094 256.417969 13.097656 259.253906 14.273438 C 262.089844 15.445312 264.890625 16.691406 267.667969 18.003906 C 270.441406 19.3125 273.179688 20.691406 275.886719 22.140625 C 278.59375 23.585938 281.261719 25.097656 283.894531 26.675781 C 286.527344 28.253906 289.117188 29.894531 291.667969 31.597656 C 294.222656 33.304688 296.730469 35.070312 299.195312 36.898438 C 301.660156 38.726562 304.078125 40.613281 306.449219 42.558594 C 308.820312 44.507812 311.144531 46.511719 313.417969 48.570312 C 315.691406 50.632812 317.914062 52.746094 320.082031 54.917969 C 322.253906 57.085938 324.367188 59.308594 326.429688 61.582031 C 328.488281 63.855469 330.492188 66.179688 332.4375 68.550781 C 334.386719 70.921875 336.273438 73.339844 338.101562 75.804688 C 339.929688 78.269531 341.695312 80.777344 343.402344 83.332031 C 345.105469 85.882812 346.746094 88.472656 348.324219 91.105469 C 349.902344 93.738281 351.414062 96.40625 352.859375 99.113281 C 354.308594 101.820312 355.6875 104.558594 356.996094 107.332031 C 358.308594 110.105469 359.554688 112.910156 360.726562 115.746094 C 361.902344 118.582031 363.003906 121.445312 364.039062 124.332031 C 365.074219 127.222656 366.035156 130.136719 366.925781 133.070312 C 367.816406 136.007812 368.636719 138.964844 369.378906 141.941406 C 370.125 144.917969 370.796875 147.910156 371.398438 150.921875 C 371.996094 153.929688 372.519531 156.953125 372.96875 159.988281 C 373.421875 163.023438 373.796875 166.066406 374.097656 169.121094 C 374.398438 172.175781 374.625 175.234375 374.773438 178.300781 C 374.925781 181.363281 375 184.429688 375 187.5 Z M 375 187.5 " fill-opacity="1" fill-rule="nonzero"/><path fill="#ffffff" d="M 178.28125 265.78125 C 177.265625 265.78125 176.25 265.234375 175.703125 264.296875 L 133.515625 191.25 C 133.046875 190.46875 132.34375 190.390625 132.03125 190.390625 C 131.71875 190.390625 131.015625 190.46875 130.546875 191.25 L 91.015625 259.765625 C 90.15625 261.171875 88.359375 261.71875 86.953125 260.859375 C 85.546875 260 85 258.203125 85.859375 256.796875 L 125.390625 188.28125 C 126.796875 185.859375 129.296875 184.453125 132.03125 184.453125 C 134.84375 184.453125 137.265625 185.859375 138.671875 188.28125 L 180.859375 261.328125 C 181.71875 262.734375 181.171875 264.609375 179.765625 265.390625 C 179.296875 265.625 178.828125 265.78125 178.28125 265.78125 Z M 178.28125 265.78125 " fill-opacity="1" fill-rule="nonzero"/><path fill="#ffffff" d="M 230.546875 265.78125 C 229.53125 265.78125 228.515625 265.234375 227.96875 264.296875 L 199.765625 215.46875 C 199.296875 214.6875 198.59375 214.609375 198.28125 214.609375 C 197.96875 214.609375 197.265625 214.6875 196.796875 215.46875 L 174.6875 253.75 C 173.828125 255.15625 172.03125 255.703125 170.625 254.84375 C 169.21875 253.984375 168.671875 252.1875 169.53125 250.78125 L 191.640625 212.5 C 193.046875 210.078125 195.46875 208.671875 198.28125 208.671875 C 201.09375 208.671875 203.515625 210.078125 204.921875 212.5 L 233.125 261.328125 C 233.984375 262.734375 233.4375 264.609375 232.03125 265.390625 C 231.640625 265.625 231.09375 265.78125 230.546875 265.78125 Z M 230.546875 265.78125 " fill-opacity="1" fill-rule="nonzero"/><path fill="#ffffff" d="M 260.546875 265.78125 C 259.53125 265.78125 258.515625 265.234375 257.96875 264.296875 L 242.109375 236.796875 C 241.640625 236.015625 240.9375 235.9375 240.625 235.9375 C 240.3125 235.9375 239.609375 236.015625 239.140625 236.796875 L 228.203125 255.78125 C 227.34375 257.1875 225.546875 257.734375 224.140625 256.875 C 222.734375 256.015625 222.1875 254.21875 223.046875 252.8125 L 233.984375 233.828125 C 235.390625 231.40625 237.890625 230 240.625 230 C 243.4375 230 245.859375 231.40625 247.265625 233.828125 L 263.125 261.328125 C 263.984375 262.734375 263.4375 264.609375 262.03125 265.390625 C 261.5625 265.625 261.09375 265.78125 260.546875 265.78125 Z M 260.546875 265.78125 " fill-opacity="1" fill-rule="nonzero"/><path fill="#ffffff" d="M 254.140625 194.21875 C 245.78125 194.21875 238.984375 187.421875 238.984375 179.0625 C 238.984375 170.703125 245.78125 163.90625 254.140625 163.90625 C 262.5 163.90625 269.296875 170.703125 269.296875 179.0625 C 269.296875 187.421875 262.5 194.21875 254.140625 194.21875 Z M 254.140625 169.921875 C 249.0625 169.921875 245 174.0625 245 179.0625 C 245 184.140625 249.140625 188.203125 254.140625 188.203125 C 259.21875 188.203125 263.28125 184.0625 263.28125 179.0625 C 263.28125 174.0625 259.21875 169.921875 254.140625 169.921875 Z M 254.140625 169.921875 " fill-opacity="1" fill-rule="nonzero"/><path fill="#ffffff" d="M 278.984375 265.78125 L 96.015625 265.78125 C 89.375 265.78125 83.984375 260.390625 83.984375 253.75 L 83.984375 121.25 C 83.984375 114.609375 89.375 109.21875 96.015625 109.21875 L 279.0625 109.21875 C 285.703125 109.21875 291.09375 114.609375 291.09375 121.25 L 291.09375 253.75 C 291.015625 260.390625 285.625 265.78125 278.984375 265.78125 Z M 96.015625 115.234375 C 92.734375 115.234375 90 117.96875 90 121.25 L 90 253.75 C 90 257.03125 92.734375 259.765625 96.015625 259.765625 L 279.0625 259.765625 C 282.34375 259.765625 285.078125 257.03125 285.078125 253.75 L 285.078125 121.25 C 285.078125 117.96875 282.34375 115.234375 279.0625 115.234375 Z M 96.015625 115.234375 " fill-opacity="1" fill-rule="nonzero"/><path fill="#ffffff" d="M 303.515625 284.140625 L 71.484375 284.140625 C 64.84375 284.140625 59.453125 278.75 59.453125 272.109375 L 59.453125 102.890625 C 59.453125 96.25 64.84375 90.859375 71.484375 90.859375 L 303.4375 90.859375 C 310.078125 90.859375 315.46875 96.25 315.46875 102.890625 L 315.46875 272.03125 C 315.46875 278.75 310.078125 284.140625 303.515625 284.140625 Z M 71.484375 96.875 C 68.203125 96.875 65.46875 99.609375 65.46875 102.890625 L 65.46875 272.03125 C 65.46875 275.3125 68.203125 278.046875 71.484375 278.046875 L 303.4375 278.046875 C 306.71875 278.046875 309.453125 275.3125 309.453125 272.03125 L 309.453125 102.890625 C 309.453125 99.609375 306.71875 96.875 303.4375 96.875 Z M 71.484375 96.875 " fill-opacity="1" fill-rule="nonzero"/><g fill="#ffffff" fill-opacity="1"><g transform="translate(306.181801, 282.310381)"><g><path d="M 2.109375 0.078125 C 1.804688 0.078125 1.566406 -0.00390625 1.390625 -0.171875 C 1.222656 -0.335938 1.140625 -0.5625 1.140625 -0.84375 C 1.140625 -1.113281 1.222656 -1.332031 1.390625 -1.5 C 1.566406 -1.675781 1.804688 -1.765625 2.109375 -1.765625 C 2.410156 -1.765625 2.644531 -1.679688 2.8125 -1.515625 C 2.988281 -1.347656 3.078125 -1.128906 3.078125 -0.859375 C 3.078125 -0.578125 2.988281 -0.347656 2.8125 -0.171875 C 2.632812 -0.00390625 2.398438 0.078125 2.109375 0.078125 Z M 2.109375 0.078125 "/></g></g></g></svg>