<svg xmlns="http://www.w3.org/2000/svg" xmlns:xlink="http://www.w3.org/1999/xlink" width="1920" zoomAndPan="magnify" viewBox="0 0 1440 809.999993" height="1080" preserveAspectRatio="xMidYMid meet" version="1.0"><defs><g/></defs><rect x="-144" width="1728" fill="#ffffff" y="-80.999999" height="971.999992" fill-opacity="1"/><rect x="-144" width="1728" fill="#a6a6a6" y="-80.999999" height="971.999992" fill-opacity="1"/><path fill="#4d4d4d" d="M 234.121094 1063.921875 L 202.445312 1063.921875 L 202.445312 895.011719 L 235.617188 895.011719 L 304.722656 1007.8125 L 304.722656 895.011719 L 336.402344 895.011719 L 336.402344 1063.921875 L 302.191406 1063.921875 L 234.121094 953.769531 Z M 372.679688 1036.785156 C 367.382812 1026.996094 364.734375 1015.070312 364.734375 1001.011719 C 364.734375 990.257812 367.378906 979.847656 372.679688 969.785156 C 377.980469 959.722656 385.484375 952.042969 395.199219 946.742188 C 404.910156 941.441406 415.757812 938.789062 427.734375 938.789062 C 446.242188 938.789062 461.410156 944.804688 473.234375 956.824219 C 485.058594 968.84375 490.972656 984.03125 490.972656 1002.390625 C 490.972656 1020.902344 484.996094 1036.246094 473.0625 1048.421875 C 461.117188 1060.597656 446.085938 1066.679688 427.964844 1066.679688 C 416.757812 1066.679688 406.0625 1064.148438 395.890625 1059.078125 C 385.710938 1054.011719 377.980469 1046.582031 372.679688 1036.785156 Z M 397.90625 1002.738281 C 397.90625 1014.878906 400.78125 1024.171875 406.539062 1030.621094 C 412.300781 1037.078125 419.40625 1040.300781 427.851562 1040.300781 C 436.296875 1040.300781 443.378906 1037.078125 449.101562 1030.621094 C 454.816406 1024.171875 457.679688 1014.796875 457.679688 1002.507812 C 457.679688 990.527344 454.816406 981.308594 449.101562 974.851562 C 443.375 968.398438 436.296875 965.175781 427.851562 965.175781 C 419.40625 965.175781 412.300781 968.398438 406.539062 974.851562 C 400.785156 981.308594 397.90625 990.601562 397.90625 1002.738281 Z M 615.132812 895.007812 L 581.039062 895.007812 L 581.039062 1063.921875 L 615.132812 1063.921875 Z M 789.164062 970.480469 C 791.390625 974.015625 792.507812 981.847656 792.507812 993.984375 L 792.507812 1063.925781 L 824.871094 1063.925781 L 824.871094 985.695312 C 824.871094 974.015625 823.757812 965.570312 821.535156 960.34375 C 818.464844 953.277344 813.816406 947.917969 807.597656 944.273438 C 801.378906 940.625 793.773438 938.796875 784.789062 938.796875 C 777.722656 938.796875 771.085938 940.410156 764.867188 943.636719 C 758.644531 946.863281 752.847656 951.742188 747.46875 958.269531 C 743.789062 951.746094 739.0625 946.863281 733.308594 943.636719 C 727.546875 940.410156 720.753906 938.796875 712.917969 938.796875 C 698.175781 938.796875 685.46875 945.285156 674.792969 958.265625 L 674.792969 941.5625 L 644.957031 941.5625 L 644.957031 1063.925781 L 677.328125 1063.925781 L 677.328125 1004.472656 C 677.328125 992.714844 678.1875 984.308594 679.917969 979.238281 C 681.640625 974.167969 684.503906 970.289062 688.496094 967.601562 C 692.488281 964.914062 696.980469 963.570312 701.972656 963.570312 C 706.121094 963.570312 709.402344 964.414062 711.820312 966.105469 C 714.238281 967.792969 716.027344 970.367188 717.179688 973.824219 C 718.328125 977.28125 718.90625 984.960938 718.90625 996.867188 L 718.90625 1063.925781 L 751.273438 1063.925781 L 751.273438 1005.164062 C 751.273438 993.644531 752.152344 985.210938 753.921875 979.871094 C 755.6875 974.535156 758.566406 970.480469 762.558594 967.714844 C 766.554688 964.949219 770.808594 963.570312 775.34375 963.570312 C 781.5625 963.566406 786.171875 965.871094 789.164062 970.480469 Z M 927.148438 1050.554688 C 921.621094 1055.9375 915.707031 1059.964844 909.410156 1062.652344 C 903.113281 1065.339844 896.398438 1066.683594 889.257812 1066.683594 C 876.664062 1066.683594 866.738281 1063.265625 859.476562 1056.433594 C 852.222656 1049.597656 848.59375 1040.953125 848.59375 1030.507812 C 848.59375 1023.59375 850.25 1017.425781 853.550781 1012.015625 C 856.851562 1006.597656 861.476562 1002.453125 867.425781 999.570312 C 873.375 996.6875 881.960938 994.171875 893.171875 992.023438 C 908.296875 989.183594 918.78125 986.53125 924.613281 984.070312 L 924.613281 980.84375 C 924.613281 974.628906 923.078125 970.1875 920.003906 967.539062 C 916.933594 964.886719 911.136719 963.566406 902.613281 963.566406 C 896.855469 963.566406 892.359375 964.699219 889.136719 966.964844 C 885.910156 969.230469 883.300781 973.207031 881.304688 978.890625 L 851.9375 973.589844 C 855.238281 961.761719 860.921875 953.003906 868.980469 947.324219 C 877.046875 941.636719 889.023438 938.792969 904.917969 938.792969 C 919.355469 938.792969 930.101562 940.503906 937.171875 943.921875 C 944.234375 947.339844 949.207031 951.683594 952.082031 956.945312 C 954.964844 962.207031 956.402344 971.863281 956.402344 985.921875 L 956.058594 1023.714844 C 956.058594 1034.46875 956.578125 1042.402344 957.609375 1047.507812 C 958.648438 1052.613281 960.589844 1058.085938 963.429688 1063.925781 L 931.410156 1063.925781 C 930.566406 1061.777344 929.527344 1058.585938 928.296875 1054.363281 C 927.765625 1052.4375 927.378906 1051.175781 927.148438 1050.554688 Z M 924.617188 1005.160156 C 920.46875 1006.542969 913.90625 1008.195312 904.921875 1010.113281 C 895.9375 1012.035156 890.0625 1013.914062 887.296875 1015.757812 C 883.074219 1018.753906 880.964844 1022.558594 880.964844 1027.164062 C 880.964844 1031.695312 882.648438 1035.613281 886.03125 1038.921875 C 889.410156 1042.222656 893.710938 1043.875 898.929688 1043.875 C 904.765625 1043.875 910.328125 1041.953125 915.628906 1038.117188 C 919.542969 1035.199219 922.117188 1031.625 923.347656 1027.398438 C 924.191406 1024.636719 924.613281 1019.375 924.613281 1011.613281 L 924.613281 1005.160156 Z M 1070.089844 941.558594 L 1100.378906 941.558594 L 1100.378906 1051.363281 C 1100.378906 1065.804688 1099.191406 1076.597656 1096.8125 1083.742188 C 1094.433594 1090.886719 1091.089844 1096.492188 1086.789062 1100.5625 C 1082.488281 1104.636719 1076.75 1107.824219 1069.566406 1110.125 C 1062.390625 1112.429688 1053.308594 1113.582031 1042.332031 1113.582031 C 1021.597656 1113.582031 1006.894531 1110.03125 998.21875 1102.921875 C 989.542969 1095.816406 985.203125 1086.8125 985.203125 1075.90625 C 985.203125 1074.828125 985.238281 1073.519531 985.320312 1071.988281 L 1022.289062 1076.480469 C 1022.902344 1080.78125 1024.324219 1083.738281 1026.550781 1085.351562 C 1029.625 1087.65625 1034.460938 1088.8125 1041.0625 1088.8125 C 1049.511719 1088.8125 1055.839844 1087.542969 1060.066406 1085.003906 C 1062.90625 1083.316406 1065.058594 1080.589844 1066.515625 1076.824219 C 1067.515625 1074.136719 1068.015625 1069.183594 1068.015625 1061.960938 L 1068.015625 1044.101562 C 1058.339844 1057.316406 1046.132812 1063.921875 1031.390625 1063.921875 C 1014.957031 1063.921875 1001.941406 1056.972656 992.339844 1043.066406 C 984.816406 1032.082031 981.054688 1018.410156 981.054688 1002.046875 C 981.054688 981.539062 985.988281 965.867188 995.851562 955.035156 C 1005.726562 944.207031 1017.988281 938.789062 1032.65625 938.789062 C 1047.78125 938.789062 1060.261719 945.4375 1070.089844 958.726562 Z M 1068.589844 1001.015625 C 1068.589844 988.339844 1065.980469 978.929688 1060.757812 972.785156 C 1055.539062 966.640625 1048.933594 963.570312 1040.945312 963.570312 C 1033.191406 963.570312 1026.796875 966.582031 1021.773438 972.613281 C 1016.742188 978.640625 1014.226562 987.84375 1014.226562 1000.210938 C 1014.226562 1013.191406 1016.742188 1022.699219 1021.773438 1028.726562 C 1026.800781 1034.757812 1033.003906 1037.773438 1040.375 1037.773438 C 1048.28125 1037.773438 1054.964844 1034.679688 1060.414062 1028.492188 C 1065.867188 1022.3125 1068.589844 1013.148438 1068.589844 1001.015625 Z M 1222.125 956.828125 C 1232.640625 968.847656 1237.671875 987.265625 1237.210938 1012.074219 L 1156.125 1012.074219 C 1156.355469 1021.675781 1158.964844 1029.148438 1163.953125 1034.484375 C 1168.945312 1039.824219 1175.164062 1042.492188 1182.613281 1042.492188 C 1187.679688 1042.492188 1191.945312 1041.109375 1195.402344 1038.34375 C 1198.855469 1035.578125 1201.464844 1031.121094 1203.230469 1024.980469 L 1235.480469 1030.394531 C 1231.335938 1042.222656 1224.789062 1051.230469 1215.84375 1057.414062 C 1206.898438 1063.597656 1195.707031 1066.683594 1182.269531 1066.683594 C 1161 1066.683594 1145.257812 1059.734375 1135.050781 1045.832031 C 1126.984375 1034.695312 1122.953125 1020.636719 1122.953125 1003.664062 C 1122.953125 983.382812 1128.25 967.503906 1138.84375 956.023438 C 1149.441406 944.539062 1162.84375 938.792969 1179.046875 938.792969 C 1197.246094 938.792969 1211.605469 944.808594 1222.125 956.828125 Z M 1205.078125 992.257812 C 1204.847656 982.886719 1202.425781 975.757812 1197.820312 970.882812 C 1193.210938 966.003906 1187.609375 963.570312 1181.003906 963.570312 C 1173.9375 963.570312 1168.105469 966.140625 1163.496094 971.289062 C 1158.890625 976.433594 1156.625 983.425781 1156.699219 992.261719 L 1205.078125 992.261719 Z M 312.847656 1151.957031 L 380.457031 1320.867188 L 343.367188 1320.867188 L 328.625 1282.5 L 261.128906 1282.5 L 247.195312 1320.867188 L 211.03125 1320.867188 L 276.792969 1151.957031 Z M 317.683594 1254.042969 L 294.417969 1191.359375 L 271.609375 1254.042969 Z M 444.382812 1260.953125 C 443.152344 1264.414062 442 1267.867188 440.925781 1271.324219 C 440.464844 1273.011719 439.347656 1276.511719 437.585938 1281.8125 L 430.90625 1260.953125 L 407.871094 1198.503906 L 373.894531 1198.503906 L 423.191406 1320.867188 L 452.328125 1320.867188 L 500.9375 1198.503906 L 467.652344 1198.503906 Z M 621.234375 1304.449219 C 622.273438 1309.5625 624.214844 1315.03125 627.054688 1320.867188 L 595.035156 1320.867188 C 594.191406 1318.71875 593.152344 1315.527344 591.921875 1311.304688 C 591.386719 1309.386719 591.003906 1308.117188 590.773438 1307.5 C 585.242188 1312.878906 579.332031 1316.910156 573.03125 1319.597656 C 566.738281 1322.289062 560.019531 1323.632812 552.878906 1323.632812 C 540.289062 1323.632812 530.359375 1320.214844 523.101562 1313.378906 C 515.847656 1306.539062 512.21875 1297.898438 512.21875 1287.453125 C 512.21875 1280.539062 513.875 1274.371094 517.175781 1268.957031 C 520.476562 1263.542969 525.101562 1259.394531 531.054688 1256.515625 C 537 1253.632812 545.585938 1251.117188 556.796875 1248.96875 C 571.921875 1246.125 582.402344 1243.476562 588.238281 1241.019531 L 588.238281 1237.789062 C 588.238281 1231.570312 586.703125 1227.132812 583.628906 1224.484375 C 580.558594 1221.832031 574.761719 1220.507812 566.238281 1220.507812 C 560.484375 1220.507812 555.988281 1221.640625 552.761719 1223.90625 C 549.535156 1226.175781 546.921875 1230.148438 544.929688 1235.832031 L 515.5625 1230.53125 C 518.867188 1218.703125 524.546875 1209.949219 532.609375 1204.265625 C 540.667969 1198.578125 552.648438 1195.738281 568.542969 1195.738281 C 582.976562 1195.738281 593.726562 1197.449219 600.792969 1200.863281 C 607.855469 1204.285156 612.824219 1208.625 615.703125 1213.886719 C 618.585938 1219.148438 620.023438 1228.804688 620.023438 1242.867188 L 619.683594 1280.65625 C 619.683594 1291.410156 620.199219 1299.34375 621.234375 1304.449219 Z M 588.234375 1262.105469 C 584.089844 1263.488281 577.527344 1265.140625 568.542969 1267.058594 C 559.554688 1268.980469 553.679688 1270.859375 550.917969 1272.703125 C 546.695312 1275.703125 544.582031 1279.503906 544.582031 1284.113281 C 544.582031 1288.644531 546.273438 1292.5625 549.652344 1295.867188 C 553.03125 1299.167969 557.332031 1300.820312 562.550781 1300.820312 C 568.382812 1300.820312 573.949219 1298.898438 579.246094 1295.0625 C 583.164062 1292.144531 585.738281 1288.566406 586.96875 1284.34375 C 587.8125 1281.582031 588.234375 1276.320312 588.234375 1268.5625 Z M 651.933594 1181.914062 L 684.296875 1181.914062 L 684.296875 1151.957031 L 651.933594 1151.957031 Z M 651.933594 1320.867188 L 684.296875 1320.867188 L 684.296875 1198.503906 L 651.933594 1198.503906 Z M 717.464844 1320.867188 L 749.832031 1320.867188 L 749.832031 1151.957031 L 717.464844 1151.957031 Z M 883.5 1304.449219 C 884.535156 1309.5625 886.476562 1315.03125 889.316406 1320.867188 L 857.292969 1320.867188 C 856.449219 1318.71875 855.417969 1315.527344 854.183594 1311.304688 C 853.648438 1309.386719 853.265625 1308.117188 853.035156 1307.5 C 847.503906 1312.878906 841.59375 1316.910156 835.296875 1319.597656 C 829 1322.289062 822.277344 1323.632812 815.136719 1323.632812 C 802.542969 1323.632812 792.617188 1320.214844 785.359375 1313.378906 C 778.101562 1306.539062 774.476562 1297.898438 774.476562 1287.453125 C 774.476562 1280.539062 776.125 1274.371094 779.425781 1268.957031 C 782.726562 1263.542969 787.355469 1259.394531 793.304688 1256.515625 C 799.253906 1253.632812 807.835938 1251.117188 819.050781 1248.96875 C 834.175781 1246.125 844.660156 1243.476562 850.496094 1241.019531 L 850.496094 1237.789062 C 850.496094 1231.570312 848.960938 1227.132812 845.886719 1224.484375 C 842.816406 1221.832031 837.011719 1220.507812 828.492188 1220.507812 C 822.734375 1220.507812 818.242188 1221.640625 815.019531 1223.90625 C 811.796875 1226.175781 809.183594 1230.148438 807.1875 1235.832031 L 777.8125 1230.53125 C 781.117188 1218.703125 786.796875 1209.949219 794.859375 1204.265625 C 802.917969 1198.578125 814.898438 1195.738281 830.792969 1195.738281 C 845.226562 1195.738281 855.976562 1197.449219 863.042969 1200.863281 C 870.109375 1204.285156 875.078125 1208.625 877.960938 1213.886719 C 880.835938 1219.148438 882.28125 1228.804688 882.28125 1242.867188 L 881.9375 1280.65625 C 881.941406 1291.410156 882.457031 1299.34375 883.5 1304.449219 Z M 850.503906 1262.105469 C 846.355469 1263.488281 839.789062 1265.140625 830.800781 1267.058594 C 821.820312 1268.980469 815.945312 1270.859375 813.179688 1272.703125 C 808.957031 1275.703125 806.84375 1279.503906 806.84375 1284.113281 C 806.84375 1288.644531 808.53125 1292.5625 811.910156 1295.867188 C 815.289062 1299.167969 819.589844 1300.820312 824.808594 1300.820312 C 830.644531 1300.820312 836.214844 1298.898438 841.511719 1295.0625 C 845.429688 1292.144531 847.996094 1288.566406 849.226562 1284.34375 C 850.074219 1281.582031 850.496094 1276.320312 850.496094 1268.5625 L 850.496094 1262.105469 Z M 1017.621094 1211.929688 C 1027.375 1222.726562 1032.253906 1238.21875 1032.253906 1258.421875 C 1032.253906 1279.3125 1027.277344 1295.40625 1017.332031 1306.699219 C 1007.386719 1317.988281 995.316406 1323.640625 981.113281 1323.640625 C 974.125 1323.640625 967.226562 1321.890625 960.4375 1318.394531 C 953.636719 1314.902344 947.785156 1309.734375 942.871094 1302.898438 L 942.871094 1320.871094 L 912.8125 1320.871094 L 912.8125 1151.960938 L 945.179688 1151.960938 L 945.179688 1212.792969 C 955.164062 1201.425781 966.984375 1195.742188 980.652344 1195.742188 C 995.550781 1195.742188 1007.871094 1201.136719 1017.621094 1211.929688 Z M 999.082031 1260.03125 C 999.082031 1246.054688 996.546875 1235.972656 991.480469 1229.785156 C 986.410156 1223.601562 979.921875 1220.507812 972.015625 1220.507812 C 964.261719 1220.507812 957.808594 1223.527344 952.664062 1229.554688 C 947.519531 1235.582031 944.949219 1244.742188 944.949219 1257.03125 C 944.949219 1269.707031 946.945312 1279.074219 950.9375 1285.144531 C 956.542969 1293.75 963.992188 1298.050781 973.285156 1298.050781 C 980.425781 1298.050781 986.507812 1294.996094 991.539062 1288.886719 C 996.566406 1282.792969 999.082031 1273.167969 999.082031 1260.03125 Z M 1058.285156 1320.867188 L 1090.648438 1320.867188 L 1090.648438 1151.957031 L 1058.285156 1151.957031 Z M 1213.546875 1213.773438 C 1224.066406 1225.792969 1229.09375 1244.210938 1228.636719 1269.019531 L 1147.546875 1269.019531 C 1147.777344 1278.625 1150.386719 1286.09375 1155.378906 1291.429688 C 1160.371094 1296.769531 1166.59375 1299.4375 1174.039062 1299.4375 C 1179.105469 1299.4375 1183.371094 1298.054688 1186.824219 1295.289062 C 1190.28125 1292.519531 1192.890625 1288.070312 1194.65625 1281.921875 L 1226.90625 1287.339844 C 1222.761719 1299.167969 1216.214844 1308.175781 1207.265625 1314.359375 C 1198.324219 1320.542969 1187.132812 1323.632812 1173.695312 1323.632812 C 1152.425781 1323.632812 1136.6875 1316.679688 1126.476562 1302.777344 C 1118.414062 1291.640625 1114.382812 1277.585938 1114.382812 1260.609375 C 1114.382812 1240.328125 1119.675781 1224.449219 1130.277344 1212.96875 C 1140.871094 1201.484375 1154.273438 1195.742188 1170.476562 1195.742188 C 1188.664062 1195.742188 1203.027344 1201.753906 1213.546875 1213.773438 Z M 1196.5 1249.207031 C 1196.269531 1239.832031 1193.847656 1232.710938 1189.238281 1227.828125 C 1184.628906 1222.949219 1179.023438 1220.511719 1172.421875 1220.511719 C 1165.359375 1220.511719 1159.523438 1223.085938 1154.914062 1228.230469 C 1150.308594 1233.378906 1148.046875 1240.367188 1148.121094 1249.203125 L 1196.5 1249.203125 Z M 894.9375 201.503906 C 946.046875 201.503906 987.472656 160.058594 987.472656 108.9375 C 987.472656 57.8125 946.046875 16.367188 894.9375 16.367188 C 843.835938 16.367188 802.398438 57.8125 802.398438 108.9375 C 802.398438 160.058594 843.835938 201.503906 894.9375 201.503906 Z M 1489.167969 -121.582031 L 1489.167969 847.683594 L -49.484375 847.683594 L -49.484375 -121.582031 Z M 1445.625 -78.019531 L -5.933594 -78.019531 L -5.933594 804.121094 L 24.511719 804.121094 L 466.730469 270.480469 L 848.015625 730.609375 L 1098.15625 461.066406 L 1416.519531 804.121094 L 1445.625 804.121094 Z M 1445.625 -78.019531 " fill-opacity="1" fill-rule="nonzero"/><g fill="#545454" fill-opacity="1"><g transform="translate(496.974005, 599.244782)"><g><path d="M 4.46875 0.171875 C 3.832031 0.171875 3.332031 -0.00390625 2.96875 -0.359375 C 2.601562 -0.710938 2.421875 -1.1875 2.421875 -1.78125 C 2.421875 -2.351562 2.601562 -2.820312 2.96875 -3.1875 C 3.332031 -3.5625 3.832031 -3.75 4.46875 -3.75 C 5.101562 -3.75 5.601562 -3.570312 5.96875 -3.21875 C 6.34375 -2.863281 6.53125 -2.394531 6.53125 -1.8125 C 6.53125 -1.226562 6.34375 -0.75 5.96875 -0.375 C 5.59375 -0.0078125 5.09375 0.171875 4.46875 0.171875 Z M 4.46875 0.171875 "/></g></g></g></svg>