<svg xmlns="http://www.w3.org/2000/svg" xmlns:xlink="http://www.w3.org/1999/xlink" width="260" zoomAndPan="magnify" viewBox="0 0 194.87999 52.499999" height="70" preserveAspectRatio="xMidYMid meet" version="1.0"><defs><g/></defs><g fill="#ffffff" fill-opacity="1"><g transform="translate(4.804624, 38.779394)"><g><path d="M 19.421875 -32.5 C 18.585938 -32 17.847656 -31.128906 17.203125 -29.890625 C 16.566406 -28.648438 16.03125 -27.222656 15.59375 -25.609375 C 15.164062 -23.992188 14.84375 -22.25 14.625 -20.375 C 14.414062 -18.507812 14.3125 -16.722656 14.3125 -15.015625 C 14.3125 -14.410156 14.328125 -13.757812 14.359375 -13.0625 C 14.390625 -12.375 14.453125 -11.660156 14.546875 -10.921875 C 14.648438 -10.179688 14.785156 -9.453125 14.953125 -8.734375 C 15.117188 -8.023438 15.351562 -7.359375 15.65625 -6.734375 C 16.445312 -6.992188 17.203125 -7.171875 17.921875 -7.265625 C 18.648438 -7.367188 19.25 -7.421875 19.71875 -7.421875 C 20.675781 -7.421875 21.523438 -7.269531 22.265625 -6.96875 C 23.003906 -6.675781 23.707031 -6.300781 24.375 -5.84375 C 25.457031 -7.394531 26.238281 -9.429688 26.71875 -11.953125 C 27.195312 -14.484375 27.4375 -17.171875 27.4375 -20.015625 C 27.4375 -23.179688 27.171875 -25.753906 26.640625 -27.734375 C 26.117188 -29.710938 25.398438 -31.269531 24.484375 -32.40625 C 23.578125 -33.550781 22.515625 -34.328125 21.296875 -34.734375 C 20.078125 -35.148438 18.773438 -35.359375 17.390625 -35.359375 C 15.734375 -35.359375 14.160156 -35.128906 12.671875 -34.671875 C 11.191406 -34.210938 9.878906 -33.507812 8.734375 -32.5625 C 7.597656 -31.625 6.695312 -30.460938 6.03125 -29.078125 C 5.375 -27.691406 5.046875 -26.054688 5.046875 -24.171875 C 5.046875 -23.273438 5.113281 -22.53125 5.25 -21.9375 C 5.382812 -21.34375 5.539062 -20.875 5.71875 -20.53125 C 5.90625 -20.1875 6.078125 -19.929688 6.234375 -19.765625 C 6.398438 -19.597656 6.519531 -19.5 6.59375 -19.46875 C 4.800781 -19.46875 3.394531 -19.925781 2.375 -20.84375 C 1.351562 -21.769531 0.84375 -23.128906 0.84375 -24.921875 C 0.84375 -26.597656 1.300781 -28.175781 2.21875 -29.65625 C 3.144531 -31.144531 4.394531 -32.441406 5.96875 -33.546875 C 7.539062 -34.660156 9.375 -35.535156 11.46875 -36.171875 C 13.5625 -36.816406 15.78125 -37.140625 18.125 -37.140625 C 21.164062 -37.140625 23.675781 -36.613281 25.65625 -35.5625 C 27.632812 -34.507812 29.203125 -33.125 30.359375 -31.40625 C 31.515625 -29.6875 32.316406 -27.726562 32.765625 -25.53125 C 33.210938 -23.332031 33.4375 -21.078125 33.4375 -18.765625 C 33.4375 -17.210938 33.34375 -15.671875 33.15625 -14.140625 C 32.976562 -12.609375 32.671875 -11.125 32.234375 -9.6875 C 31.804688 -8.25 31.242188 -6.910156 30.546875 -5.671875 C 29.859375 -4.429688 29.003906 -3.363281 27.984375 -2.46875 C 28.484375 -1.976562 28.992188 -1.492188 29.515625 -1.015625 C 30.046875 -0.535156 30.609375 -0.113281 31.203125 0.25 C 31.796875 0.613281 32.429688 0.898438 33.109375 1.109375 C 33.785156 1.328125 34.535156 1.4375 35.359375 1.4375 C 35.628906 1.4375 35.851562 1.425781 36.03125 1.40625 C 36.21875 1.394531 36.390625 1.375 36.546875 1.34375 C 36.285156 2.5 35.847656 3.3125 35.234375 3.78125 C 34.628906 4.257812 33.796875 4.5 32.734375 4.5 C 31.816406 4.5 30.992188 4.347656 30.265625 4.046875 C 29.535156 3.753906 28.878906 3.359375 28.296875 2.859375 C 27.722656 2.367188 27.195312 1.8125 26.71875 1.1875 C 26.238281 0.5625 25.785156 -0.0820312 25.359375 -0.75 C 24.628906 -0.414062 23.832031 -0.160156 22.96875 0.015625 C 22.113281 0.203125 21.191406 0.296875 20.203125 0.296875 C 18.554688 0.296875 17.003906 0.015625 15.546875 -0.546875 C 14.097656 -1.109375 12.828125 -2.03125 11.734375 -3.3125 C 10.648438 -4.601562 9.789062 -6.285156 9.15625 -8.359375 C 8.53125 -10.441406 8.21875 -13.003906 8.21875 -16.046875 C 8.21875 -17.929688 8.363281 -19.863281 8.65625 -21.84375 C 8.957031 -23.820312 9.4375 -25.628906 10.09375 -27.265625 C 10.757812 -28.898438 11.644531 -30.242188 12.75 -31.296875 C 13.851562 -32.359375 15.234375 -32.890625 16.890625 -32.890625 C 17.253906 -32.890625 17.648438 -32.863281 18.078125 -32.8125 C 18.503906 -32.757812 18.953125 -32.65625 19.421875 -32.5 Z M 19.265625 -5.9375 C 18.898438 -5.9375 18.46875 -5.882812 17.96875 -5.78125 C 17.476562 -5.6875 17.003906 -5.507812 16.546875 -5.25 C 16.972656 -4.6875 17.472656 -4.25 18.046875 -3.9375 C 18.628906 -3.625 19.316406 -3.46875 20.109375 -3.46875 C 21.066406 -3.46875 21.957031 -3.75 22.78125 -4.3125 C 22.320312 -4.800781 21.800781 -5.191406 21.21875 -5.484375 C 20.644531 -5.785156 19.992188 -5.9375 19.265625 -5.9375 Z M 19.265625 -5.9375 "/></g></g></g><g fill="#ffffff" fill-opacity="1"><g transform="translate(40.806125, 38.779394)"><g><path d="M 19.015625 -24.765625 L 19.015625 -7.921875 C 19.015625 -7.585938 19.03125 -7.171875 19.0625 -6.671875 C 19.101562 -6.179688 19.195312 -5.695312 19.34375 -5.21875 C 19.488281 -4.738281 19.707031 -4.328125 20 -3.984375 C 20.300781 -3.640625 20.71875 -3.46875 21.25 -3.46875 C 22.863281 -3.46875 24.050781 -5.265625 24.8125 -8.859375 L 26.640625 -8.859375 C 26.285156 -6.785156 25.828125 -5.144531 25.265625 -3.9375 C 24.703125 -2.726562 24.101562 -1.8125 23.46875 -1.1875 C 22.84375 -0.5625 22.203125 -0.160156 21.546875 0.015625 C 20.890625 0.203125 20.296875 0.296875 19.765625 0.296875 C 19.003906 0.296875 18.347656 0.164062 17.796875 -0.09375 C 17.253906 -0.363281 16.789062 -0.710938 16.40625 -1.140625 C 16.03125 -1.566406 15.726562 -2.0625 15.5 -2.625 C 15.269531 -3.1875 15.085938 -3.765625 14.953125 -4.359375 C 14.328125 -2.742188 13.503906 -1.5625 12.484375 -0.8125 C 11.460938 -0.0703125 10.390625 0.296875 9.265625 0.296875 C 8.304688 0.296875 7.394531 0.164062 6.53125 -0.09375 C 5.675781 -0.363281 4.9375 -0.800781 4.3125 -1.40625 C 3.6875 -2.019531 3.191406 -2.8125 2.828125 -3.78125 C 2.460938 -4.757812 2.28125 -5.957031 2.28125 -7.375 L 2.28125 -24.765625 L 7.234375 -24.765625 L 7.234375 -7.921875 C 7.234375 -6.304688 7.515625 -5.160156 8.078125 -4.484375 C 8.640625 -3.804688 9.347656 -3.46875 10.203125 -3.46875 C 10.660156 -3.46875 11.117188 -3.585938 11.578125 -3.828125 C 12.046875 -4.078125 12.460938 -4.429688 12.828125 -4.890625 C 13.191406 -5.359375 13.488281 -5.921875 13.71875 -6.578125 C 13.945312 -7.242188 14.0625 -8.003906 14.0625 -8.859375 L 14.0625 -24.765625 Z M 19.015625 -24.765625 "/></g></g></g><g fill="#ffffff" fill-opacity="1"><g transform="translate(63.288489, 38.779394)"><g><path d="M 7.28125 -24.765625 L 7.28125 -7.921875 C 7.28125 -7.585938 7.296875 -7.171875 7.328125 -6.671875 C 7.359375 -6.179688 7.445312 -5.695312 7.59375 -5.21875 C 7.75 -4.738281 7.972656 -4.328125 8.265625 -3.984375 C 8.566406 -3.640625 8.984375 -3.46875 9.515625 -3.46875 C 11.128906 -3.46875 12.316406 -5.265625 13.078125 -8.859375 L 14.90625 -8.859375 C 14.539062 -6.785156 14.078125 -5.144531 13.515625 -3.9375 C 12.960938 -2.726562 12.367188 -1.8125 11.734375 -1.1875 C 11.109375 -0.5625 10.460938 -0.160156 9.796875 0.015625 C 9.140625 0.203125 8.550781 0.296875 8.03125 0.296875 C 6.875 0.296875 5.929688 0.0703125 5.203125 -0.375 C 4.472656 -0.820312 3.894531 -1.390625 3.46875 -2.078125 C 3.039062 -2.773438 2.742188 -3.550781 2.578125 -4.40625 C 2.410156 -5.269531 2.328125 -6.097656 2.328125 -6.890625 L 2.328125 -24.765625 Z M 1.4375 -31.890625 C 1.4375 -32.785156 1.75 -33.5625 2.375 -34.21875 C 3 -34.882812 3.773438 -35.21875 4.703125 -35.21875 C 5.597656 -35.21875 6.375 -34.882812 7.03125 -34.21875 C 7.695312 -33.5625 8.03125 -32.785156 8.03125 -31.890625 C 8.03125 -30.972656 7.695312 -30.195312 7.03125 -29.5625 C 6.375 -28.9375 5.597656 -28.625 4.703125 -28.625 C 3.773438 -28.625 3 -28.9375 2.375 -29.5625 C 1.75 -30.195312 1.4375 -30.972656 1.4375 -31.890625 Z M 1.4375 -31.890625 "/></g></g></g><g fill="#ffffff" fill-opacity="1"><g transform="translate(74.03447, 38.779394)"><g><path d="M 7.28125 -34.671875 L 7.28125 -7.921875 C 7.28125 -7.585938 7.296875 -7.171875 7.328125 -6.671875 C 7.359375 -6.179688 7.445312 -5.695312 7.59375 -5.21875 C 7.75 -4.738281 7.972656 -4.328125 8.265625 -3.984375 C 8.566406 -3.640625 8.984375 -3.46875 9.515625 -3.46875 C 11.128906 -3.46875 12.316406 -5.265625 13.078125 -8.859375 L 14.90625 -8.859375 C 14.539062 -6.785156 14.078125 -5.144531 13.515625 -3.9375 C 12.960938 -2.726562 12.367188 -1.8125 11.734375 -1.1875 C 11.109375 -0.5625 10.460938 -0.160156 9.796875 0.015625 C 9.140625 0.203125 8.550781 0.296875 8.03125 0.296875 C 6.875 0.296875 5.929688 0.0703125 5.203125 -0.375 C 4.472656 -0.820312 3.894531 -1.390625 3.46875 -2.078125 C 3.039062 -2.773438 2.742188 -3.550781 2.578125 -4.40625 C 2.410156 -5.269531 2.328125 -6.097656 2.328125 -6.890625 L 2.328125 -33.984375 Z M 7.28125 -34.671875 "/></g></g></g><g fill="#ffffff" fill-opacity="1"><g transform="translate(84.730923, 38.779394)"><g><path d="M 7.28125 -34.671875 L 7.28125 -7.921875 C 7.28125 -7.585938 7.296875 -7.171875 7.328125 -6.671875 C 7.359375 -6.179688 7.445312 -5.695312 7.59375 -5.21875 C 7.75 -4.738281 7.972656 -4.328125 8.265625 -3.984375 C 8.566406 -3.640625 8.984375 -3.46875 9.515625 -3.46875 C 11.128906 -3.46875 12.316406 -5.265625 13.078125 -8.859375 L 14.90625 -8.859375 C 14.539062 -6.785156 14.078125 -5.144531 13.515625 -3.9375 C 12.960938 -2.726562 12.367188 -1.8125 11.734375 -1.1875 C 11.109375 -0.5625 10.460938 -0.160156 9.796875 0.015625 C 9.140625 0.203125 8.550781 0.296875 8.03125 0.296875 C 6.875 0.296875 5.929688 0.0703125 5.203125 -0.375 C 4.472656 -0.820312 3.894531 -1.390625 3.46875 -2.078125 C 3.039062 -2.773438 2.742188 -3.550781 2.578125 -4.40625 C 2.410156 -5.269531 2.328125 -6.097656 2.328125 -6.890625 L 2.328125 -33.984375 Z M 7.28125 -34.671875 "/></g></g></g><g fill="#ffffff" fill-opacity="1"><g transform="translate(95.427375, 38.779394)"><g><path d="M 5.046875 -25.15625 C 5.046875 -24.269531 5.117188 -23.492188 5.265625 -22.828125 C 5.421875 -22.171875 5.597656 -21.617188 5.796875 -21.171875 C 5.992188 -20.722656 6.179688 -20.367188 6.359375 -20.109375 C 6.546875 -19.847656 6.6875 -19.632812 6.78125 -19.46875 C 4.9375 -19.46875 3.484375 -19.9375 2.421875 -20.875 C 1.367188 -21.8125 0.84375 -23.257812 0.84375 -25.21875 C 0.84375 -26.863281 1.265625 -28.410156 2.109375 -29.859375 C 2.953125 -31.316406 4.085938 -32.582031 5.515625 -33.65625 C 6.953125 -34.726562 8.632812 -35.578125 10.5625 -36.203125 C 12.5 -36.828125 14.554688 -37.140625 16.734375 -37.140625 C 18.679688 -37.140625 20.375 -36.898438 21.8125 -36.421875 C 23.25 -35.953125 24.4375 -35.300781 25.375 -34.46875 C 26.320312 -33.644531 27.023438 -32.703125 27.484375 -31.640625 C 27.953125 -30.585938 28.1875 -29.5 28.1875 -28.375 C 28.1875 -27.125 27.851562 -25.878906 27.1875 -24.640625 C 26.53125 -23.398438 25.570312 -22.351562 24.3125 -21.5 C 26.863281 -21.226562 28.90625 -20.21875 30.4375 -18.46875 C 31.96875 -16.71875 32.734375 -14.273438 32.734375 -11.140625 C 32.734375 -10.085938 32.617188 -8.875 32.390625 -7.5 C 32.160156 -6.132812 31.738281 -4.832031 31.125 -3.59375 C 30.519531 -2.351562 29.671875 -1.300781 28.578125 -0.4375 C 27.484375 0.414062 26.097656 0.84375 24.421875 0.84375 C 23.691406 0.84375 22.992188 0.75 22.328125 0.5625 C 21.671875 0.382812 21.085938 0.125 20.578125 -0.21875 C 20.066406 -0.570312 19.660156 -1.019531 19.359375 -1.5625 C 19.066406 -2.101562 18.921875 -2.722656 18.921875 -3.421875 C 18.921875 -3.617188 18.9375 -3.890625 18.96875 -4.234375 C 19 -4.578125 19.050781 -4.867188 19.125 -5.109375 C 19.582031 -4.378906 20.15625 -3.875 20.84375 -3.59375 C 21.539062 -3.3125 22.1875 -3.171875 22.78125 -3.171875 C 23.601562 -3.171875 24.285156 -3.398438 24.828125 -3.859375 C 25.378906 -4.328125 25.800781 -4.921875 26.09375 -5.640625 C 26.394531 -6.367188 26.601562 -7.171875 26.71875 -8.046875 C 26.832031 -8.921875 26.890625 -9.789062 26.890625 -10.65625 C 26.890625 -13.789062 26.285156 -16.050781 25.078125 -17.4375 C 23.878906 -18.820312 22.207031 -19.515625 20.0625 -19.515625 C 19.664062 -19.515625 19.171875 -19.5 18.578125 -19.46875 C 17.984375 -19.4375 17.40625 -19.382812 16.84375 -19.3125 L 16.84375 0 L 11.484375 0 L 11.484375 -31.75 L 16.84375 -32.5 L 16.84375 -21.296875 L 17.53125 -21.296875 C 18.457031 -21.296875 19.320312 -21.519531 20.125 -21.96875 C 20.9375 -22.414062 21.640625 -23 22.234375 -23.71875 C 22.828125 -24.445312 23.289062 -25.25 23.625 -26.125 C 23.957031 -27 24.125 -27.867188 24.125 -28.734375 C 24.125 -30.679688 23.460938 -32.269531 22.140625 -33.5 C 20.816406 -34.738281 18.851562 -35.359375 16.25 -35.359375 C 14.820312 -35.359375 13.429688 -35.148438 12.078125 -34.734375 C 10.734375 -34.328125 9.539062 -33.703125 8.5 -32.859375 C 7.457031 -32.015625 6.617188 -30.945312 5.984375 -29.65625 C 5.359375 -28.375 5.046875 -26.875 5.046875 -25.15625 Z M 5.046875 -25.15625 "/></g></g></g><g fill="#ffffff" fill-opacity="1"><g transform="translate(128.606204, 38.779394)"><g><path d="M 7.28125 -34.671875 L 7.28125 -7.921875 C 7.28125 -7.585938 7.296875 -7.171875 7.328125 -6.671875 C 7.359375 -6.179688 7.445312 -5.695312 7.59375 -5.21875 C 7.75 -4.738281 7.972656 -4.328125 8.265625 -3.984375 C 8.566406 -3.640625 8.984375 -3.46875 9.515625 -3.46875 C 11.128906 -3.46875 12.316406 -5.265625 13.078125 -8.859375 L 14.90625 -8.859375 C 14.539062 -6.785156 14.078125 -5.144531 13.515625 -3.9375 C 12.960938 -2.726562 12.367188 -1.8125 11.734375 -1.1875 C 11.109375 -0.5625 10.460938 -0.160156 9.796875 0.015625 C 9.140625 0.203125 8.550781 0.296875 8.03125 0.296875 C 6.875 0.296875 5.929688 0.0703125 5.203125 -0.375 C 4.472656 -0.820312 3.894531 -1.390625 3.46875 -2.078125 C 3.039062 -2.773438 2.742188 -3.550781 2.578125 -4.40625 C 2.410156 -5.269531 2.328125 -6.097656 2.328125 -6.890625 L 2.328125 -33.984375 Z M 7.28125 -34.671875 "/></g></g></g><g fill="#ffffff" fill-opacity="1"><g transform="translate(139.302657, 38.779394)"><g><path d="M 11.34375 -25.015625 C 12.632812 -25.015625 13.738281 -24.816406 14.65625 -24.421875 C 15.582031 -24.023438 16.34375 -23.46875 16.9375 -22.75 C 17.53125 -22.039062 18 -21.207031 18.34375 -20.25 C 18.695312 -19.300781 18.957031 -18.28125 19.125 -17.1875 L 19.421875 -17.1875 C 20.804688 -17.1875 22.078125 -17.46875 23.234375 -18.03125 C 24.390625 -18.59375 25.378906 -19.300781 26.203125 -20.15625 L 26.9375 -18.828125 C 26.28125 -17.765625 25.234375 -16.882812 23.796875 -16.1875 C 22.359375 -15.5 20.878906 -15.023438 19.359375 -14.765625 C 19.359375 -14.429688 19.367188 -14.097656 19.390625 -13.765625 C 19.410156 -13.441406 19.421875 -13.097656 19.421875 -12.734375 C 19.421875 -8.671875 18.675781 -5.484375 17.1875 -3.171875 C 15.695312 -0.859375 13.617188 0.296875 10.953125 0.296875 C 9.859375 0.296875 8.757812 0.0976562 7.65625 -0.296875 C 6.550781 -0.691406 5.550781 -1.351562 4.65625 -2.28125 C 3.757812 -3.207031 3.039062 -4.394531 2.5 -5.84375 C 1.957031 -7.300781 1.6875 -9.101562 1.6875 -11.25 C 1.6875 -12.695312 1.84375 -14.226562 2.15625 -15.84375 C 2.46875 -17.46875 2.992188 -18.957031 3.734375 -20.3125 C 4.484375 -21.664062 5.472656 -22.785156 6.703125 -23.671875 C 7.941406 -24.566406 9.488281 -25.015625 11.34375 -25.015625 Z M 11.84375 -3.46875 C 13.59375 -3.46875 14.878906 -4.332031 15.703125 -6.0625 C 16.523438 -7.800781 16.9375 -10.253906 16.9375 -13.421875 C 16.9375 -13.617188 16.9375 -13.816406 16.9375 -14.015625 C 16.9375 -14.210938 16.921875 -14.410156 16.890625 -14.609375 C 15.929688 -14.671875 15.242188 -14.882812 14.828125 -15.25 C 14.421875 -15.613281 14.21875 -16.226562 14.21875 -17.09375 C 14.21875 -17.851562 14.378906 -18.390625 14.703125 -18.703125 C 15.035156 -19.015625 15.535156 -19.1875 16.203125 -19.21875 C 15.804688 -20.375 15.300781 -21.171875 14.6875 -21.609375 C 14.070312 -22.054688 13.382812 -22.28125 12.625 -22.28125 C 11.601562 -22.28125 10.738281 -21.941406 10.03125 -21.265625 C 9.320312 -20.597656 8.742188 -19.734375 8.296875 -18.671875 C 7.847656 -17.617188 7.523438 -16.457031 7.328125 -15.1875 C 7.128906 -13.914062 7.03125 -12.664062 7.03125 -11.4375 C 7.03125 -9.820312 7.175781 -8.5 7.46875 -7.46875 C 7.769531 -6.445312 8.148438 -5.640625 8.609375 -5.046875 C 9.078125 -4.453125 9.59375 -4.039062 10.15625 -3.8125 C 10.71875 -3.582031 11.28125 -3.46875 11.84375 -3.46875 Z M 11.84375 -3.46875 "/></g></g></g><g fill="#ffffff" fill-opacity="1"><g transform="translate(160.051807, 38.779394)"><g><path d="M 20.5625 -24.765625 L 20.5625 -1.046875 C 21.382812 -1.304688 22.113281 -1.597656 22.75 -1.921875 C 23.394531 -2.253906 23.957031 -2.703125 24.4375 -3.265625 C 24.914062 -3.828125 25.3125 -4.550781 25.625 -5.4375 C 25.945312 -6.332031 26.1875 -7.472656 26.34375 -8.859375 L 28.1875 -8.859375 C 27.914062 -7.109375 27.570312 -5.679688 27.15625 -4.578125 C 26.75 -3.472656 26.238281 -2.582031 25.625 -1.90625 C 25.019531 -1.226562 24.296875 -0.695312 23.453125 -0.3125 C 22.609375 0.0625 21.644531 0.414062 20.5625 0.75 L 20.5625 3.90625 C 20.5625 5.457031 20.394531 6.769531 20.0625 7.84375 C 19.726562 8.914062 19.269531 9.789062 18.6875 10.46875 C 18.113281 11.144531 17.457031 11.628906 16.71875 11.921875 C 15.976562 12.222656 15.191406 12.375 14.359375 12.375 C 12.710938 12.375 11.425781 11.90625 10.5 10.96875 C 9.570312 10.03125 9.109375 8.882812 9.109375 7.53125 C 9.109375 6.664062 9.296875 5.882812 9.671875 5.1875 C 10.054688 4.5 10.550781 3.863281 11.15625 3.28125 C 11.769531 2.707031 12.460938 2.195312 13.234375 1.75 C 14.015625 1.3125 14.804688 0.925781 15.609375 0.59375 L 15.609375 -3.671875 C 14.972656 -2.804688 14.1875 -2.09375 13.25 -1.53125 C 12.3125 -0.96875 11.25 -0.6875 10.0625 -0.6875 C 9.0625 -0.6875 8.054688 -0.875 7.046875 -1.25 C 6.046875 -1.632812 5.140625 -2.253906 4.328125 -3.109375 C 3.523438 -3.972656 2.863281 -5.097656 2.34375 -6.484375 C 1.832031 -7.867188 1.578125 -9.554688 1.578125 -11.546875 C 1.578125 -13.023438 1.75 -14.554688 2.09375 -16.140625 C 2.445312 -17.734375 3.003906 -19.179688 3.765625 -20.484375 C 4.523438 -21.785156 5.5 -22.863281 6.6875 -23.71875 C 7.875 -24.582031 9.3125 -25.015625 11 -25.015625 C 11.394531 -25.015625 11.8125 -24.972656 12.25 -24.890625 C 12.695312 -24.804688 13.128906 -24.664062 13.546875 -24.46875 C 13.960938 -24.269531 14.347656 -23.992188 14.703125 -23.640625 C 15.066406 -23.296875 15.367188 -22.878906 15.609375 -22.390625 L 15.609375 -24.765625 Z M 11.296875 -4.453125 C 11.785156 -4.453125 12.285156 -4.582031 12.796875 -4.84375 C 13.316406 -5.113281 13.78125 -5.476562 14.1875 -5.9375 C 14.601562 -6.40625 14.941406 -6.953125 15.203125 -7.578125 C 15.472656 -8.203125 15.609375 -8.878906 15.609375 -9.609375 L 15.609375 -20.15625 C 15.367188 -20.6875 15.007812 -21.171875 14.53125 -21.609375 C 14.050781 -22.054688 13.4375 -22.28125 12.6875 -22.28125 C 11.625 -22.28125 10.710938 -21.941406 9.953125 -21.265625 C 9.191406 -20.597656 8.578125 -19.75 8.109375 -18.71875 C 7.648438 -17.695312 7.3125 -16.570312 7.09375 -15.34375 C 6.882812 -14.125 6.78125 -12.972656 6.78125 -11.890625 C 6.78125 -9.210938 7.164062 -7.300781 7.9375 -6.15625 C 8.71875 -5.019531 9.835938 -4.453125 11.296875 -4.453125 Z M 13.421875 9.8125 C 14.316406 9.8125 14.90625 9.472656 15.1875 8.796875 C 15.46875 8.117188 15.609375 7.203125 15.609375 6.046875 L 15.609375 2.578125 C 13.953125 3.335938 12.773438 4.085938 12.078125 4.828125 C 11.390625 5.566406 11.046875 6.398438 11.046875 7.328125 C 11.046875 8.085938 11.25 8.691406 11.65625 9.140625 C 12.070312 9.585938 12.660156 9.8125 13.421875 9.8125 Z M 13.421875 9.8125 "/></g></g></g></svg>